<svg class="main-svg" xmlns="http://www.w3.org/2000/svg" xmlns:xlink="http://www.w3.org/1999/xlink" width="372" height="336" style="" viewBox="0 0 372 336"><rect x="0" y="0" width="372" height="336" style="fill: rgb(255, 255, 255); fill-opacity: 1;"/><defs id="defs-c62e12"><g class="clips"><clipPath id="clipc62e12xyplot" class="plotclip"><rect width="223" height="216"/></clipPath><clipPath class="axesclip" id="clipc62e12x"><rect x="60" y="0" width="223" height="336"/></clipPath><clipPath class="axesclip" id="clipc62e12y"><rect x="0" y="60" width="372" height="216"/></clipPath><clipPath class="axesclip" id="clipc62e12xy"><rect x="60" y="60" width="223" height="216"/></clipPath></g><g class="gradients"/></defs><g class="bglayer"/><g class="layer-below"><g class="imagelayer"/><g class="shapelayer"/></g><g class="cartesianlayer"><g class="subplot xy"><g class="layer-subplot"><g class="shapelayer"/><g class="imagelayer"/></g><g class="gridlayer"><g class="x"><path class="xgrid crisp" transform="translate(105.05,0)" d="M0,60v216" style="stroke: rgb(238, 238, 238); stroke-opacity: 1; stroke-width: 1px;"/><path class="xgrid crisp" transform="translate(150.1,0)" d="M0,60v216" style="stroke: rgb(238, 238, 238); stroke-opacity: 1; stroke-width: 1px;"/><path class="xgrid crisp" transform="translate(195.15,0)" d="M0,60v216" style="stroke: rgb(238, 238, 238); stroke-opacity: 1; stroke-width: 1px;"/><path class="xgrid crisp" transform="translate(240.2,0)" d="M0,60v216" style="stroke: rgb(238, 238, 238); stroke-opacity: 1; stroke-width: 1px;"/></g><g class="y"><path class="ygrid crisp" transform="translate(0,249.37)" d="M60,0h223" style="stroke: rgb(238, 238, 238); stroke-opacity: 1; stroke-width: 1px;"/><path class="ygrid crisp" transform="translate(0,168.87)" d="M60,0h223" style="stroke: rgb(238, 238, 238); stroke-opacity: 1; stroke-width: 1px;"/><path class="ygrid crisp" transform="translate(0,88.37)" d="M60,0h223" style="stroke: rgb(238, 238, 238); stroke-opacity: 1; stroke-width: 1px;"/></g></g><g class="zerolinelayer"><path class="xzl zl crisp" transform="translate(60,0)" d="M0,60v216" style="stroke: rgb(68, 68, 68); stroke-opacity: 1; stroke-width: 1px;"/></g><path class="xlines-below"/><path class="ylines-below"/><g class="overlines-below"/><g class="xaxislayer-below"/><g class="yaxislayer-below"/><g class="overaxes-below"/><g class="plot" transform="translate(60,60)" clip-path="url('#clipc62e12xyplot')"><g class="scatterlayer mlayer"><g class="trace scatter trace6c4fd0" style="stroke-miterlimit: 2; opacity: 1;"><g class="fills"/><g class="errorbars"/><g class="lines"><path class="js-line" d="M0,91.43L2.25,74.54L4.51,24.88L6.76,27.77L9.01,23.06L11.26,10.8L13.52,15.32L15.77,21.98L18.02,12.23L20.27,30.14L22.53,18.3L27.03,32.59L29.28,35.13L31.54,34.38L33.79,46.24L36.04,45.71L38.29,47.38L40.55,50.19L42.8,46.05L45.05,39.35L47.3,59.01L49.56,54.59L51.81,51.91L54.06,56.63L56.31,72.42L58.57,78.61L60.82,54.38L63.07,69.87L65.32,60.28L67.58,64.91L69.83,83.31L72.08,67.55L74.33,70.49L76.59,57.64L78.84,68.73L81.09,70.84L83.34,80.06L87.85,76.84L90.1,95.64L92.35,92.58L94.61,86.54L96.86,101.02L99.11,103.22L101.36,109.18L103.62,110.99L105.87,119.66L108.12,117.25L110.37,112.87L112.63,121L114.88,116.02L117.13,125.62L119.38,114.41L121.64,123.24L123.89,125.65L126.14,142.98L128.39,134.28L130.65,131.36L132.9,151.42L135.15,142.36L137.4,137.18L139.66,151.42L141.91,145.95L144.16,144.54L146.41,128.63L148.67,150.88L150.92,165.81L153.17,166.02L155.42,158.62L157.68,164.64L159.93,164.45L162.18,160.24L164.43,167.44L166.69,163.65L168.94,174.49L171.19,176.46L175.7,181.15L177.95,178.04L180.2,168.34L182.45,185.93L184.71,188.62L186.96,182.03L189.21,179.03L191.46,188.94L193.72,189.35L195.97,184.19L198.22,194.28L200.47,192.41L202.73,191.7L204.98,192.91L207.23,200.97L209.48,195.83L211.74,201.8L213.99,193.89L216.24,205.2L218.49,199.3L220.75,203.62L223,201.95" style="vector-effect: non-scaling-stroke; fill: none; stroke: rgb(31, 119, 180); stroke-opacity: 1; stroke-width: 2px; opacity: 1;"/></g><g class="points"/><g class="text"/></g></g></g><g class="overplot"/><path class="xlines-above crisp" d="M0,0" style="fill: none;"/><path class="ylines-above crisp" d="M0,0" style="fill: none;"/><g class="overlines-above"/><g class="xaxislayer-above"><g class="xtick"><text text-anchor="middle" x="0" y="289" transform="translate(60,0)" style="font-family: 'Open Sans', verdana, arial, sans-serif; font-size: 12px; fill: rgb(68, 68, 68); fill-opacity: 1; white-space: pre;">0</text></g><g class="xtick"><text text-anchor="middle" x="0" y="289" transform="translate(105.05,0)" style="font-family: 'Open Sans', verdana, arial, sans-serif; font-size: 12px; fill: rgb(68, 68, 68); fill-opacity: 1; white-space: pre;">20</text></g><g class="xtick"><text text-anchor="middle" x="0" y="289" transform="translate(150.1,0)" style="font-family: 'Open Sans', verdana, arial, sans-serif; font-size: 12px; fill: rgb(68, 68, 68); fill-opacity: 1; white-space: pre;">40</text></g><g class="xtick"><text text-anchor="middle" x="0" y="289" transform="translate(195.15,0)" style="font-family: 'Open Sans', verdana, arial, sans-serif; font-size: 12px; fill: rgb(68, 68, 68); fill-opacity: 1; white-space: pre;">60</text></g><g class="xtick"><text text-anchor="middle" x="0" y="289" transform="translate(240.2,0)" style="font-family: 'Open Sans', verdana, arial, sans-serif; font-size: 12px; fill: rgb(68, 68, 68); fill-opacity: 1; white-space: pre;">80</text></g></g><g class="yaxislayer-above"><g class="ytick"><text text-anchor="end" x="59" y="4.199999999999999" transform="translate(0,249.37)" style="font-family: 'Open Sans', verdana, arial, sans-serif; font-size: 12px; fill: rgb(68, 68, 68); fill-opacity: 1; white-space: pre;">0.1</text></g><g class="ytick"><text text-anchor="end" x="59" y="4.199999999999999" transform="translate(0,168.87)" style="font-family: 'Open Sans', verdana, arial, sans-serif; font-size: 12px; fill: rgb(68, 68, 68); fill-opacity: 1; white-space: pre;">0.15</text></g><g class="ytick"><text text-anchor="end" x="59" y="4.199999999999999" transform="translate(0,88.37)" style="font-family: 'Open Sans', verdana, arial, sans-serif; font-size: 12px; fill: rgb(68, 68, 68); fill-opacity: 1; white-space: pre;">0.2</text></g></g><g class="overaxes-above"/></g></g><g class="polarlayer"/><g class="ternarylayer"/><g class="geolayer"/><g class="funnelarealayer"/><g class="pielayer"/><g class="treemaplayer"/><g class="sunburstlayer"/><g class="glimages"/><defs id="topdefs-c62e12"><g class="clips"/><clipPath id="legendc62e12"><rect width="73" height="29" x="0" y="0"/></clipPath></defs><g class="layer-above"><g class="imagelayer"/><g class="shapelayer"/></g><g class="infolayer"><g class="legend" pointer-events="all" transform="translate(287.46000000000004,60)"><rect class="bg" shape-rendering="crispEdges" width="73" height="29" x="0" y="0" style="stroke: rgb(68, 68, 68); stroke-opacity: 1; fill: rgb(255, 255, 255); fill-opacity: 1; stroke-width: 0px;"/><g class="scrollbox" transform="" clip-path="url('#legendc62e12')"><g class="groups"><g class="traces" transform="translate(0,14.5)" style="opacity: 1;"><text class="legendtext" text-anchor="start" x="40" y="4.680000000000001" style="font-family: 'Open Sans', verdana, arial, sans-serif; font-size: 12px; fill: rgb(68, 68, 68); fill-opacity: 1; white-space: pre;">train</text><g class="layers" style="opacity: 1;"><g class="legendfill"/><g class="legendlines"><path class="js-line" d="M5,0h30" style="fill: none; stroke: rgb(31, 119, 180); stroke-opacity: 1; stroke-width: 2px;"/></g><g class="legendsymbols"><g class="legendpoints"/></g></g><rect class="legendtoggle" x="0" y="-9.5" width="67.73750114440918" height="19" style="fill: rgb(0, 0, 0); fill-opacity: 0;"/></g></g></g><rect class="scrollbar" rx="20" ry="3" width="0" height="0" x="0" y="0" style="fill: rgb(128, 139, 164); fill-opacity: 1;"/></g><g class="g-gtitle"><text class="gtitle" x="186" y="30" text-anchor="middle" dy="0em" style="font-family: 'Open Sans', verdana, arial, sans-serif; font-size: 17px; fill: rgb(68, 68, 68); opacity: 1; font-weight: normal; white-space: pre;">D(G(X))</text></g><g class="g-xtitle"><text class="xtitle" x="171.5" y="328" text-anchor="middle" style="font-family: 'Open Sans', verdana, arial, sans-serif; font-size: 14px; fill: rgb(68, 68, 68); opacity: 1; font-weight: normal; white-space: pre;">epoch</text></g><g class="g-ytitle"><text class="ytitle" transform="rotate(-90,22,168)" x="22" y="168" text-anchor="middle" style="font-family: 'Open Sans', verdana, arial, sans-serif; font-size: 14px; fill: rgb(68, 68, 68); opacity: 1; font-weight: normal; white-space: pre;">D(G(X))</text></g></g></svg>