<svg class="main-svg" xmlns="http://www.w3.org/2000/svg" xmlns:xlink="http://www.w3.org/1999/xlink" width="371" height="336" style="" viewBox="0 0 371 336"><rect x="0" y="0" width="371" height="336" style="fill: rgb(255, 255, 255); fill-opacity: 1;"/><defs id="defs-a24c2f"><g class="clips"><clipPath id="clipa24c2fxyplot" class="plotclip"><rect width="222" height="216"/></clipPath><clipPath class="axesclip" id="clipa24c2fx"><rect x="60" y="0" width="222" height="336"/></clipPath><clipPath class="axesclip" id="clipa24c2fy"><rect x="0" y="60" width="371" height="216"/></clipPath><clipPath class="axesclip" id="clipa24c2fxy"><rect x="60" y="60" width="222" height="216"/></clipPath></g><g class="gradients"/></defs><g class="bglayer"/><g class="layer-below"><g class="imagelayer"/><g class="shapelayer"/></g><g class="cartesianlayer"><g class="subplot xy"><g class="layer-subplot"><g class="shapelayer"/><g class="imagelayer"/></g><g class="gridlayer"><g class="x"><path class="xgrid crisp" transform="translate(104.85,0)" d="M0,60v216" style="stroke: rgb(238, 238, 238); stroke-opacity: 1; stroke-width: 1px;"/><path class="xgrid crisp" transform="translate(149.7,0)" d="M0,60v216" style="stroke: rgb(238, 238, 238); stroke-opacity: 1; stroke-width: 1px;"/><path class="xgrid crisp" transform="translate(194.55,0)" d="M0,60v216" style="stroke: rgb(238, 238, 238); stroke-opacity: 1; stroke-width: 1px;"/><path class="xgrid crisp" transform="translate(239.39,0)" d="M0,60v216" style="stroke: rgb(238, 238, 238); stroke-opacity: 1; stroke-width: 1px;"/></g><g class="y"><path class="ygrid crisp" transform="translate(0,237.92)" d="M60,0h222" style="stroke: rgb(238, 238, 238); stroke-opacity: 1; stroke-width: 1px;"/><path class="ygrid crisp" transform="translate(0,198.02)" d="M60,0h222" style="stroke: rgb(238, 238, 238); stroke-opacity: 1; stroke-width: 1px;"/><path class="ygrid crisp" transform="translate(0,158.12)" d="M60,0h222" style="stroke: rgb(238, 238, 238); stroke-opacity: 1; stroke-width: 1px;"/><path class="ygrid crisp" transform="translate(0,118.22)" d="M60,0h222" style="stroke: rgb(238, 238, 238); stroke-opacity: 1; stroke-width: 1px;"/><path class="ygrid crisp" transform="translate(0,78.32)" d="M60,0h222" style="stroke: rgb(238, 238, 238); stroke-opacity: 1; stroke-width: 1px;"/></g></g><g class="zerolinelayer"><path class="xzl zl crisp" transform="translate(60,0)" d="M0,60v216" style="stroke: rgb(68, 68, 68); stroke-opacity: 1; stroke-width: 1px;"/></g><path class="xlines-below"/><path class="ylines-below"/><g class="overlines-below"/><g class="xaxislayer-below"/><g class="yaxislayer-below"/><g class="overaxes-below"/><g class="plot" transform="translate(60,60)" clip-path="url('#clipa24c2fxyplot')"><g class="scatterlayer mlayer"><g class="trace scatter traced1f5d6" style="stroke-miterlimit: 2; opacity: 1;"><g class="fills"/><g class="errorbars"/><g class="lines"><path class="js-line" d="M0,10.8L2.24,203.68L2.24,22.7L4.48,203.85L4.48,22.37L6.73,203.8L6.73,24.41L8.97,204.06L8.97,24.82L11.21,203.92L11.21,24.28L13.45,203.7L13.45,26L15.7,203.79L15.7,25.87L17.94,203.57L17.94,26.46L20.18,204.09L20.18,26.2L22.42,203.87L22.42,26.27L24.67,203.79L24.67,26.32L26.91,203.77L26.91,27.54L29.15,203.73L29.15,26.35L31.39,203.94L31.39,26.99L33.64,203.97L33.64,26.64L35.88,204.02L35.88,26.68L38.12,204.2L38.12,26.4L40.36,204.03L40.36,28.12L42.61,203.85L42.61,27.86L44.85,203.79L44.85,28.41L47.09,204.35L47.09,28.07L49.33,203.92L49.33,28.91L51.58,204.14L51.58,28.81L53.82,204.14L53.82,28.63L56.06,204.07L56.06,29.14L58.3,204.01L58.3,29.14L60.55,204.06L60.55,28.76L62.79,204L62.79,29.66L65.03,203.97L65.03,29.28L67.27,204.47L67.27,29.16L69.52,204.06L69.52,30.43L71.76,204.36L71.76,30.53L74,204.14L74,30.87L76.24,204.3L76.24,30.57L78.48,204.15L78.48,31.71L80.73,204.22L80.73,30.29L82.97,204.39L82.97,31.54L85.21,204.2L85.21,31.59L87.45,204.38L87.45,30.93L89.7,204.27L89.7,31.62L91.94,204.37L91.94,32.85L94.18,204.38L94.18,32.24L96.42,204.51L96.42,32.63L98.67,204.27L98.67,33.73L100.91,204.28L100.91,33.47L103.15,204.53L103.15,32.91L105.39,204.4L105.39,34.05L107.64,204.23L107.64,34.78L109.88,204.54L109.88,35.7L112.12,204.3L112.12,35.86L114.36,204.65L114.36,34.83L116.61,204.53L116.61,35.95L118.85,204.54L118.85,37.02L121.09,204.28L121.09,37.13L123.33,204.44L123.33,38.5L125.58,204.73L125.58,39.25L127.82,204.67L127.82,39.36L130.06,204.42L130.06,39.38L132.3,204.33L132.3,40.29L134.55,204.71L134.55,41.61L136.79,204.68L136.79,40.58L139.03,204.48L139.03,41.57L141.27,205.04L141.27,41.96L143.52,204.56L143.52,42.55L145.76,204.65L145.76,44.17L148,204.64L148,44.64L150.24,204.56L150.24,44.56L152.48,204.61L152.48,45.42L154.73,204.72L154.73,45.7L156.97,204.78L156.97,47.39L159.21,204.96L159.21,47.91L161.45,204.84L161.45,48.79L163.7,204.82L163.7,50.11L165.94,204.89L165.94,49.05L168.18,204.8L168.18,50.06L170.42,204.97L170.42,51.34L172.67,205L172.67,52.33L174.91,204.58L174.91,52.12L177.15,204.76L177.15,52.66L179.39,204.81L179.39,53.76L181.64,204.96L181.64,53.1L183.88,204.84L183.88,54.55L186.12,204.94L186.12,54.34L188.36,205.06L188.36,55.12L190.61,205.17L190.61,55.9L192.85,205.2L192.85,57.05L195.09,205.14L195.09,56.36L197.33,204.88L197.33,57.83L199.58,205.06L199.58,57.59L201.82,204.99L201.82,58.32L204.06,204.71L204.06,58.84L206.3,205.04L206.3,58.84L208.55,204.97L208.55,59.44L210.79,205.03L210.79,60.39L213.03,205.04L213.03,59.47L215.27,205.16L215.27,59.89L217.52,205.05L217.52,61.62L219.76,204.92L219.76,61.63L222,205.19L222,62.12" style="vector-effect: non-scaling-stroke; fill: none; stroke: rgb(31, 119, 180); stroke-opacity: 1; stroke-width: 2px; opacity: 1;"/></g><g class="points"/><g class="text"/></g></g></g><g class="overplot"/><path class="xlines-above crisp" d="M0,0" style="fill: none;"/><path class="ylines-above crisp" d="M0,0" style="fill: none;"/><g class="overlines-above"/><g class="xaxislayer-above"><g class="xtick"><text text-anchor="middle" x="0" y="289" transform="translate(60,0)" style="font-family: 'Open Sans', verdana, arial, sans-serif; font-size: 12px; fill: rgb(68, 68, 68); fill-opacity: 1; white-space: pre;">0</text></g><g class="xtick"><text text-anchor="middle" x="0" y="289" transform="translate(104.85,0)" style="font-family: 'Open Sans', verdana, arial, sans-serif; font-size: 12px; fill: rgb(68, 68, 68); fill-opacity: 1; white-space: pre;">20</text></g><g class="xtick"><text text-anchor="middle" x="0" y="289" transform="translate(149.7,0)" style="font-family: 'Open Sans', verdana, arial, sans-serif; font-size: 12px; fill: rgb(68, 68, 68); fill-opacity: 1; white-space: pre;">40</text></g><g class="xtick"><text text-anchor="middle" x="0" y="289" transform="translate(194.55,0)" style="font-family: 'Open Sans', verdana, arial, sans-serif; font-size: 12px; fill: rgb(68, 68, 68); fill-opacity: 1; white-space: pre;">60</text></g><g class="xtick"><text text-anchor="middle" x="0" y="289" transform="translate(239.39,0)" style="font-family: 'Open Sans', verdana, arial, sans-serif; font-size: 12px; fill: rgb(68, 68, 68); fill-opacity: 1; white-space: pre;">80</text></g></g><g class="yaxislayer-above"><g class="ytick"><text text-anchor="end" x="59" y="4.199999999999999" transform="translate(0,237.92)" style="font-family: 'Open Sans', verdana, arial, sans-serif; font-size: 12px; fill: rgb(68, 68, 68); fill-opacity: 1; white-space: pre;">5</text></g><g class="ytick"><text text-anchor="end" x="59" y="4.199999999999999" transform="translate(0,198.02)" style="font-family: 'Open Sans', verdana, arial, sans-serif; font-size: 12px; fill: rgb(68, 68, 68); fill-opacity: 1; white-space: pre;">10</text></g><g class="ytick"><text text-anchor="end" x="59" y="4.199999999999999" transform="translate(0,158.12)" style="font-family: 'Open Sans', verdana, arial, sans-serif; font-size: 12px; fill: rgb(68, 68, 68); fill-opacity: 1; white-space: pre;">15</text></g><g class="ytick"><text text-anchor="end" x="59" y="4.199999999999999" transform="translate(0,118.22)" style="font-family: 'Open Sans', verdana, arial, sans-serif; font-size: 12px; fill: rgb(68, 68, 68); fill-opacity: 1; white-space: pre;">20</text></g><g class="ytick"><text text-anchor="end" x="59" y="4.199999999999999" transform="translate(0,78.32)" style="font-family: 'Open Sans', verdana, arial, sans-serif; font-size: 12px; fill: rgb(68, 68, 68); fill-opacity: 1; white-space: pre;">25</text></g></g><g class="overaxes-above"/></g></g><g class="polarlayer"/><g class="ternarylayer"/><g class="geolayer"/><g class="funnelarealayer"/><g class="pielayer"/><g class="treemaplayer"/><g class="sunburstlayer"/><g class="glimages"/><defs id="topdefs-a24c2f"><g class="clips"/><clipPath id="legenda24c2f"><rect width="73" height="29" x="0" y="0"/></clipPath></defs><g class="layer-above"><g class="imagelayer"/><g class="shapelayer"/></g><g class="infolayer"><g class="legend" pointer-events="all" transform="translate(286.44,60)"><rect class="bg" shape-rendering="crispEdges" width="73" height="29" x="0" y="0" style="stroke: rgb(68, 68, 68); stroke-opacity: 1; fill: rgb(255, 255, 255); fill-opacity: 1; stroke-width: 0px;"/><g class="scrollbox" transform="" clip-path="url('#legenda24c2f')"><g class="groups"><g class="traces" transform="translate(0,14.5)" style="opacity: 1;"><text class="legendtext" text-anchor="start" x="40" y="4.680000000000001" style="font-family: 'Open Sans', verdana, arial, sans-serif; font-size: 12px; fill: rgb(68, 68, 68); fill-opacity: 1; white-space: pre;">train</text><g class="layers" style="opacity: 1;"><g class="legendfill"/><g class="legendlines"><path class="js-line" d="M5,0h30" style="fill: none; stroke: rgb(31, 119, 180); stroke-opacity: 1; stroke-width: 2px;"/></g><g class="legendsymbols"><g class="legendpoints"/></g></g><rect class="legendtoggle" x="0" y="-9.5" width="67.73750114440918" height="19" style="fill: rgb(0, 0, 0); fill-opacity: 0;"/></g></g></g><rect class="scrollbar" rx="20" ry="3" width="0" height="0" x="0" y="0" style="fill: rgb(128, 139, 164); fill-opacity: 1;"/></g><g class="g-gtitle"><text class="gtitle" x="185.5" y="30" text-anchor="middle" dy="0em" style="font-family: 'Open Sans', verdana, arial, sans-serif; font-size: 17px; fill: rgb(68, 68, 68); opacity: 1; font-weight: normal; white-space: pre;">Generator</text></g><g class="g-xtitle"><text class="xtitle" x="171" y="328" text-anchor="middle" style="font-family: 'Open Sans', verdana, arial, sans-serif; font-size: 14px; fill: rgb(68, 68, 68); opacity: 1; font-weight: normal; white-space: pre;">epoch</text></g><g class="g-ytitle"><text class="ytitle" transform="rotate(-90,22,168)" x="22" y="168" text-anchor="middle" style="font-family: 'Open Sans', verdana, arial, sans-serif; font-size: 14px; fill: rgb(68, 68, 68); opacity: 1; font-weight: normal; white-space: pre;">Generator</text></g></g></svg>