<svg class="main-svg" xmlns="http://www.w3.org/2000/svg" xmlns:xlink="http://www.w3.org/1999/xlink" width="372" height="336" style="" viewBox="0 0 372 336"><rect x="0" y="0" width="372" height="336" style="fill: rgb(255, 255, 255); fill-opacity: 1;"/><defs id="defs-72943a"><g class="clips"><clipPath id="clip72943axyplot" class="plotclip"><rect width="223" height="216"/></clipPath><clipPath class="axesclip" id="clip72943ax"><rect x="60" y="0" width="223" height="336"/></clipPath><clipPath class="axesclip" id="clip72943ay"><rect x="0" y="60" width="372" height="216"/></clipPath><clipPath class="axesclip" id="clip72943axy"><rect x="60" y="60" width="223" height="216"/></clipPath></g><g class="gradients"/></defs><g class="bglayer"/><g class="layer-below"><g class="imagelayer"/><g class="shapelayer"/></g><g class="cartesianlayer"><g class="subplot xy"><g class="layer-subplot"><g class="shapelayer"/><g class="imagelayer"/></g><g class="gridlayer"><g class="x"><path class="xgrid crisp" transform="translate(122.82,0)" d="M0,60v216" style="stroke: rgb(238, 238, 238); stroke-opacity: 1; stroke-width: 1px;"/><path class="xgrid crisp" transform="translate(185.63,0)" d="M0,60v216" style="stroke: rgb(238, 238, 238); stroke-opacity: 1; stroke-width: 1px;"/><path class="xgrid crisp" transform="translate(248.45,0)" d="M0,60v216" style="stroke: rgb(238, 238, 238); stroke-opacity: 1; stroke-width: 1px;"/></g><g class="y"><path class="ygrid crisp" transform="translate(0,229.26)" d="M60,0h223" style="stroke: rgb(238, 238, 238); stroke-opacity: 1; stroke-width: 1px;"/><path class="ygrid crisp" transform="translate(0,192.58)" d="M60,0h223" style="stroke: rgb(238, 238, 238); stroke-opacity: 1; stroke-width: 1px;"/><path class="ygrid crisp" transform="translate(0,155.9)" d="M60,0h223" style="stroke: rgb(238, 238, 238); stroke-opacity: 1; stroke-width: 1px;"/><path class="ygrid crisp" transform="translate(0,119.22)" d="M60,0h223" style="stroke: rgb(238, 238, 238); stroke-opacity: 1; stroke-width: 1px;"/><path class="ygrid crisp" transform="translate(0,82.53)" d="M60,0h223" style="stroke: rgb(238, 238, 238); stroke-opacity: 1; stroke-width: 1px;"/></g></g><g class="zerolinelayer"><path class="xzl zl crisp" transform="translate(60,0)" d="M0,60v216" style="stroke: rgb(68, 68, 68); stroke-opacity: 1; stroke-width: 1px;"/><path class="yzl zl crisp" transform="translate(0,265.94)" d="M60,0h223" style="stroke: rgb(68, 68, 68); stroke-opacity: 1; stroke-width: 1px;"/></g><path class="xlines-below"/><path class="ylines-below"/><g class="overlines-below"/><g class="xaxislayer-below"/><g class="yaxislayer-below"/><g class="overaxes-below"/><g class="plot" transform="translate(60,60)" clip-path="url('#clip72943axyplot')"><g class="scatterlayer mlayer"><g class="trace scatter trace6293fd" style="stroke-miterlimit: 2; opacity: 1;"><g class="fills"/><g class="errorbars"/><g class="lines"><path class="js-line" d="M0,204.7L3.14,193.08L3.14,10.8L3.14,204.53L6.28,192.96L6.28,15.5L6.28,204.43L9.42,192.85L9.42,17.5L9.42,204.45L12.56,192.87L12.56,18.76L12.56,204.41L15.7,193.26L15.7,18.32L15.7,204.39L18.85,192.9L18.85,19.18L18.85,204.42L21.99,193.31L21.99,20.04L21.99,204.52L25.13,193.05L25.13,18.9L25.13,204.45L28.27,193.04L28.27,19.59L28.27,204.58L31.41,193.22L31.41,19.61L31.41,204.58L34.55,193.31L34.55,19.31L34.55,204.58L37.69,193.25L37.69,20.26L37.69,204.68L40.83,193.52L40.83,20.62L40.83,204.68L43.97,193.44L43.97,21.84L43.97,204.64L47.11,193.47L47.11,20.09L47.11,204.64L50.25,193.5L50.25,21.76L50.25,204.62L53.39,193.49L53.39,22.49L53.39,204.66L56.54,193.22L56.54,22.68L56.54,204.63L59.68,193.35L59.68,21.52L59.68,204.6L62.82,193.37L62.82,22.23L62.82,204.65L65.96,193.18L65.96,22.84L65.96,204.72L69.1,193.15L69.1,22.89L69.1,204.68L72.24,193.64L72.24,23.08L72.24,204.69L75.38,193.44L75.38,22.64L75.38,204.72L78.52,193.42L78.52,23.73L78.52,204.7L81.66,193.64L81.66,23.2L81.66,204.7L84.8,193.49L84.8,22.88L84.8,204.76L87.94,193.41L87.94,23.77L87.94,204.83L91.08,193.44L91.08,23.92L91.08,204.74L94.23,193.56L94.23,24.14L94.23,204.75L97.37,193.52L97.37,23.88L97.37,204.8L100.51,193.75L100.51,23.69L100.51,204.8L103.65,193.51L103.65,24.25L103.65,204.81L106.79,193.72L106.79,23.98L106.79,204.8L109.93,193.58L109.93,24.85L109.93,204.79L113.07,193.8L113.07,23.67L113.07,204.83L116.21,193.59L116.21,25.26L116.21,204.88L119.35,193.54L119.35,24.7L119.35,204.84L122.49,193.71L122.49,24.52L122.49,204.88L125.63,193.72L125.63,24.64L125.63,204.92L128.77,193.8L128.77,25.53L128.77,204.94L131.92,193.58L131.92,25.16L131.92,204.96L135.06,193.76L135.06,24.98L135.06,204.99L138.2,193.57L138.2,25.46L138.2,204.99L141.34,193.73L141.34,25.47L141.34,204.95L144.48,193.95L144.48,25.43L144.48,205.06L147.62,193.8L147.62,25.16L147.62,205.02L150.76,193.86L150.76,25.23L150.76,205.02L153.9,193.97L153.9,25.27L153.9,205.09L157.04,193.91L157.04,25.84L157.04,205.06L160.18,194.09L160.18,26.67L160.18,205.06L163.32,193.84L163.32,27.41L163.32,205.05L166.46,193.95L166.46,26.93L166.46,205.09L169.61,193.96L169.61,26.82L169.61,205.09L172.75,194.07L172.75,27.84L172.75,205.1L175.89,193.92L175.89,28.96L175.89,205.09L179.03,194.11L179.03,28.78L179.03,205.12L182.17,194.2L182.17,29.01L182.17,205.11L185.31,194.17L185.31,29.74L185.31,205.12L188.45,194.45L188.45,29.57L188.45,205.13L191.59,194L191.59,30.71L191.59,205.14L194.73,194.36L194.73,30.51L194.73,205.15L197.87,193.76L197.87,31.76L197.87,205.16L201.01,194.04L201.01,32.69L201.01,205.13L204.15,194.12L204.15,32.38L204.15,205.15L207.3,193.76L207.3,33.29L207.3,205.18L210.44,194.24L210.44,34.12L210.44,205.18L213.58,194L213.58,35.04L213.58,205.12L216.72,193.93L216.72,35.94L216.72,205.17L219.86,194.23L219.86,35.84L219.86,205.2L223,194.1L223,36.42L223,205.15" style="vector-effect: non-scaling-stroke; fill: none; stroke: rgb(31, 119, 180); stroke-opacity: 1; stroke-width: 2px; opacity: 1;"/></g><g class="points"/><g class="text"/></g></g></g><g class="overplot"/><path class="xlines-above crisp" d="M0,0" style="fill: none;"/><path class="ylines-above crisp" d="M0,0" style="fill: none;"/><g class="overlines-above"/><g class="xaxislayer-above"><g class="xtick"><text text-anchor="middle" x="0" y="289" transform="translate(60,0)" style="font-family: 'Open Sans', verdana, arial, sans-serif; font-size: 12px; fill: rgb(68, 68, 68); fill-opacity: 1; white-space: pre;">0</text></g><g class="xtick"><text text-anchor="middle" x="0" y="289" transform="translate(122.82,0)" style="font-family: 'Open Sans', verdana, arial, sans-serif; font-size: 12px; fill: rgb(68, 68, 68); fill-opacity: 1; white-space: pre;">20</text></g><g class="xtick"><text text-anchor="middle" x="0" y="289" transform="translate(185.63,0)" style="font-family: 'Open Sans', verdana, arial, sans-serif; font-size: 12px; fill: rgb(68, 68, 68); fill-opacity: 1; white-space: pre;">40</text></g><g class="xtick"><text text-anchor="middle" x="0" y="289" transform="translate(248.45,0)" style="font-family: 'Open Sans', verdana, arial, sans-serif; font-size: 12px; fill: rgb(68, 68, 68); fill-opacity: 1; white-space: pre;">60</text></g></g><g class="yaxislayer-above"><g class="ytick"><text text-anchor="end" x="59" y="4.199999999999999" transform="translate(0,265.94)" style="font-family: 'Open Sans', verdana, arial, sans-serif; font-size: 12px; fill: rgb(68, 68, 68); fill-opacity: 1; white-space: pre;">0</text></g><g class="ytick"><text text-anchor="end" x="59" y="4.199999999999999" transform="translate(0,229.26)" style="font-family: 'Open Sans', verdana, arial, sans-serif; font-size: 12px; fill: rgb(68, 68, 68); fill-opacity: 1; white-space: pre;">5</text></g><g class="ytick"><text text-anchor="end" x="59" y="4.199999999999999" transform="translate(0,192.58)" style="font-family: 'Open Sans', verdana, arial, sans-serif; font-size: 12px; fill: rgb(68, 68, 68); fill-opacity: 1; white-space: pre;">10</text></g><g class="ytick"><text text-anchor="end" x="59" y="4.199999999999999" transform="translate(0,155.9)" style="font-family: 'Open Sans', verdana, arial, sans-serif; font-size: 12px; fill: rgb(68, 68, 68); fill-opacity: 1; white-space: pre;">15</text></g><g class="ytick"><text text-anchor="end" x="59" y="4.199999999999999" transform="translate(0,119.22)" style="font-family: 'Open Sans', verdana, arial, sans-serif; font-size: 12px; fill: rgb(68, 68, 68); fill-opacity: 1; white-space: pre;">20</text></g><g class="ytick"><text text-anchor="end" x="59" y="4.199999999999999" transform="translate(0,82.53)" style="font-family: 'Open Sans', verdana, arial, sans-serif; font-size: 12px; fill: rgb(68, 68, 68); fill-opacity: 1; white-space: pre;">25</text></g></g><g class="overaxes-above"/></g></g><g class="polarlayer"/><g class="ternarylayer"/><g class="geolayer"/><g class="funnelarealayer"/><g class="pielayer"/><g class="treemaplayer"/><g class="sunburstlayer"/><g class="glimages"/><defs id="topdefs-72943a"><g class="clips"/><clipPath id="legend72943a"><rect width="73" height="29" x="0" y="0"/></clipPath></defs><g class="layer-above"><g class="imagelayer"/><g class="shapelayer"/></g><g class="infolayer"><g class="legend" pointer-events="all" transform="translate(287.46000000000004,60)"><rect class="bg" shape-rendering="crispEdges" width="73" height="29" x="0" y="0" style="stroke: rgb(68, 68, 68); stroke-opacity: 1; fill: rgb(255, 255, 255); fill-opacity: 1; stroke-width: 0px;"/><g class="scrollbox" transform="" clip-path="url('#legend72943a')"><g class="groups"><g class="traces" transform="translate(0,14.5)" style="opacity: 1;"><text class="legendtext" text-anchor="start" x="40" y="4.680000000000001" style="font-family: 'Open Sans', verdana, arial, sans-serif; font-size: 12px; fill: rgb(68, 68, 68); fill-opacity: 1; white-space: pre;">train</text><g class="layers" style="opacity: 1;"><g class="legendfill"/><g class="legendlines"><path class="js-line" d="M5,0h30" style="fill: none; stroke: rgb(31, 119, 180); stroke-opacity: 1; stroke-width: 2px;"/></g><g class="legendsymbols"><g class="legendpoints"/></g></g><rect class="legendtoggle" x="0" y="-9.5" width="67.73750114440918" height="19" style="fill: rgb(0, 0, 0); fill-opacity: 0;"/></g></g></g><rect class="scrollbar" rx="20" ry="3" width="0" height="0" x="0" y="0" style="fill: rgb(128, 139, 164); fill-opacity: 1;"/></g><g class="g-gtitle"><text class="gtitle" x="186" y="30" text-anchor="middle" dy="0em" style="font-family: 'Open Sans', verdana, arial, sans-serif; font-size: 17px; fill: rgb(68, 68, 68); opacity: 1; font-weight: normal; white-space: pre;">D(G(X))</text></g><g class="g-xtitle"><text class="xtitle" x="171.5" y="328" text-anchor="middle" style="font-family: 'Open Sans', verdana, arial, sans-serif; font-size: 14px; fill: rgb(68, 68, 68); opacity: 1; font-weight: normal; white-space: pre;">epoch</text></g><g class="g-ytitle"><text class="ytitle" transform="rotate(-90,22,168)" x="22" y="168" text-anchor="middle" style="font-family: 'Open Sans', verdana, arial, sans-serif; font-size: 14px; fill: rgb(68, 68, 68); opacity: 1; font-weight: normal; white-space: pre;">D(G(X))</text></g></g></svg>